<?xml version="1.0" standalone="no"?>
<!DOCTYPE svg PUBLIC "-//W3C//DTD SVG 20010904//EN"
 "http://www.w3.org/TR/2001/REC-SVG-20010904/DTD/svg10.dtd">
<svg version="1.0" xmlns="http://www.w3.org/2000/svg"
 width="512.000000pt" height="512.000000pt" viewBox="0 0 512.000000 512.000000"
 preserveAspectRatio="xMidYMid meet">

<g transform="translate(0.000000,512.000000) scale(0.100000,-0.100000)"
fill="#000000" stroke="none">
<path d="M526 4790 c-71 -22 -100 -82 -116 -235 -10 -101 -50 -795 -51 -892
-1 -64 22 -108 71 -135 42 -23 100 -19 139 9 51 37 59 71 76 328 9 132 20 282
23 333 l7 94 105 -133 c127 -162 326 -365 435 -445 106 -78 220 -137 330 -169
73 -22 110 -27 200 -27 248 0 438 71 864 326 376 225 444 251 661 251 124 0
155 -3 213 -23 219 -73 357 -182 428 -337 92 -203 49 -461 -117 -685 -139
-189 -339 -328 -849 -593 -463 -240 -635 -345 -819 -498 -392 -327 -529 -707
-375 -1038 186 -401 764 -654 1347 -590 715 77 1302 558 1575 1289 45 121 87
270 87 310 0 87 -86 153 -170 130 -58 -16 -85 -54 -115 -160 -194 -694 -683
-1174 -1303 -1281 -142 -24 -371 -26 -498 -4 -339 59 -599 227 -686 445 -32
78 -31 222 1 299 38 93 110 193 210 291 191 190 336 285 806 527 348 180 428
225 585 329 294 194 449 365 555 611 64 146 78 220 79 393 1 173 -13 239 -79
370 -148 295 -508 499 -880 500 -238 0 -429 -72 -796 -301 -281 -175 -412
-237 -574 -270 -254 -53 -415 12 -676 271 -103 102 -289 316 -289 333 0 2 84
-17 188 -44 204 -51 335 -76 454 -86 67 -5 80 -3 111 16 62 38 82 111 50 178
-24 51 -61 69 -171 83 -174 21 -317 55 -757 178 -208 58 -240 64 -279 52z"/>
</g>
</svg>
