<?xml version="1.0" standalone="no"?>
<!DOCTYPE svg PUBLIC "-//W3C//DTD SVG 20010904//EN"
 "http://www.w3.org/TR/2001/REC-SVG-20010904/DTD/svg10.dtd">
<svg version="1.0" xmlns="http://www.w3.org/2000/svg"
 width="512.000000pt" height="512.000000pt" viewBox="0 0 512.000000 512.000000"
 preserveAspectRatio="xMidYMid meet">

<g transform="translate(0.000000,512.000000) scale(0.100000,-0.100000)"
fill="#000000" stroke="none">
<path d="M2740 4626 l0 -106 -425 0 -425 0 2 -222 3 -223 423 -3 422 -2 0
-105 c0 -58 2 -105 5 -105 6 0 634 417 648 430 8 7 -600 422 -639 437 -12 4
-14 -13 -14 -101z m268 -247 c59 -40 110 -75 115 -79 6 -5 -213 -160 -228
-160 -3 0 -5 18 -5 40 l0 40 -420 0 -420 0 0 75 0 75 420 0 420 0 0 40 c0 22
2 40 5 40 3 0 54 -32 113 -71z"/>
<path d="M1897 3693 c-4 -3 -7 -645 -7 -1425 l0 -1418 -110 0 -110 0 0 -225 0
-225 1425 0 1425 0 0 75 0 75 -1350 0 -1350 0 0 75 0 75 1575 0 1575 0 0 -75
0 -75 -150 0 -150 0 0 -75 0 -75 225 0 225 0 0 225 0 225 -110 0 -110 0 -2
1423 -3 1422 -1496 3 c-822 1 -1499 -1 -1502 -5z m2843 -1493 l0 -1350 -1345
0 -1345 0 0 1350 0 1350 1345 0 1345 0 0 -1350z"/>
<path d="M4447 3394 c-4 -4 -7 -38 -7 -76 l0 -68 80 0 81 0 -3 73 -3 72 -70 3
c-39 1 -74 0 -78 -4z"/>
<path d="M3284 3089 c-81 -9 -216 -50 -289 -87 -244 -122 -424 -357 -480 -622
-24 -113 -20 -289 9 -403 80 -315 327 -565 646 -653 93 -26 357 -26 450 0 319
88 566 338 646 653 29 114 33 290 9 401 -80 382 -394 667 -783 712 -97 11
-107 11 -208 -1z m303 -170 c142 -36 292 -132 389 -249 61 -75 129 -213 149
-305 13 -58 16 -106 13 -198 -9 -210 -69 -348 -218 -497 -96 -96 -178 -148
-295 -187 -73 -25 -94 -27 -230 -27 -136 0 -157 2 -230 27 -116 39 -198 91
-296 187 -93 92 -142 169 -185 291 -22 60 -27 98 -31 201 -7 157 11 243 72
366 163 323 512 481 862 391z"/>
<path d="M3200 2200 l0 -370 75 0 75 0 0 150 0 150 110 0 110 0 0 75 0 75
-110 0 -110 0 0 70 0 70 120 0 120 0 0 75 0 75 -195 0 -195 0 0 -370z"/>
<path d="M4447 3094 c-4 -4 -7 -38 -7 -76 l0 -68 80 0 81 0 -3 73 -3 72 -70 3
c-39 1 -74 0 -78 -4z"/>
<path d="M1260 3343 c-35 -12 -70 -41 -158 -131 -62 -63 -125 -130 -138 -148
l-25 -32 47 -44 c26 -24 52 -43 59 -43 7 0 61 53 120 118 116 127 143 147 205
147 33 0 48 -6 72 -30 27 -28 30 -36 26 -78 -4 -45 -18 -65 -214 -310 -115
-144 -212 -272 -216 -285 -9 -25 -100 -1039 -94 -1044 2 -2 35 -7 73 -10 l70
-6 6 49 c3 27 16 164 28 304 12 140 27 269 34 286 13 32 65 64 105 64 36 0 77
-27 94 -64 14 -30 16 -82 16 -398 0 -199 -5 -394 -10 -431 -24 -162 -126 -282
-314 -367 -33 -15 -243 -87 -466 -159 -223 -73 -411 -134 -418 -136 -10 -4
-12 64 -10 327 l3 332 245 71 245 70 63 615 63 614 57 64 c119 133 117 130 96
153 -11 12 -35 34 -55 50 l-36 28 -103 -115 -103 -116 -60 -586 c-33 -323 -64
-589 -68 -592 -4 -3 -118 -36 -253 -74 l-246 -70 0 -488 c0 -350 3 -488 11
-488 22 0 1006 324 1080 356 174 74 300 184 362 316 61 128 62 140 62 608 l0
425 -24 53 c-13 28 -38 65 -56 80 l-32 29 104 139 c114 154 129 181 145 257
14 70 -2 147 -48 223 l-36 59 22 45 c28 57 37 146 20 205 -16 56 -77 127 -133
154 -52 25 -150 27 -217 4z m239 -597 c18 -69 0 -109 -130 -283 -108 -146
-123 -161 -159 -171 l-40 -10 0 52 c1 108 8 121 154 305 150 188 152 190 175
107z"/>
</g>
</svg>
