<?xml version="1.0" standalone="no"?>
<!DOCTYPE svg PUBLIC "-//W3C//DTD SVG 20010904//EN"
 "http://www.w3.org/TR/2001/REC-SVG-20010904/DTD/svg10.dtd">
<svg version="1.0" xmlns="http://www.w3.org/2000/svg"
 width="512.000000pt" height="512.000000pt" viewBox="0 0 512.000000 512.000000"
 preserveAspectRatio="xMidYMid meet">

<g transform="translate(0.000000,512.000000) scale(0.100000,-0.100000)"
fill="#000000" stroke="none">
<path d="M1194 4506 c-135 -31 -274 -135 -336 -252 -61 -114 -58 -25 -58
-1694 0 -1339 2 -1533 15 -1585 50 -192 217 -337 422 -367 70 -10 93 -9 158 5
94 20 111 29 535 274 190 110 745 430 1235 713 490 282 918 533 952 557 73 51
145 145 175 230 26 73 35 206 18 282 -27 121 -98 229 -197 297 -32 23 -265
160 -518 306 -253 146 -822 475 -1265 730 -443 256 -832 475 -864 487 -75 28
-192 35 -272 17z"/>
</g>
</svg>
