<?xml version="1.0" standalone="no"?>
<!DOCTYPE svg PUBLIC "-//W3C//DTD SVG 20010904//EN"
 "http://www.w3.org/TR/2001/REC-SVG-20010904/DTD/svg10.dtd">
<svg version="1.0" xmlns="http://www.w3.org/2000/svg"
 width="512.000000pt" height="512.000000pt" viewBox="0 0 512.000000 512.000000"
 preserveAspectRatio="xMidYMid meet">

<g transform="translate(0.000000,512.000000) scale(0.100000,-0.100000)"
fill="#000000" stroke="none">
<path d="M775 4785 c-22 -8 -49 -26 -61 -40 -44 -55 -208 -613 -268 -915 -47
-233 -51 -434 -11 -591 104 -413 283 -647 546 -715 127 -33 311 -16 466 42
298 112 617 346 1167 854 203 188 281 252 348 286 75 38 103 33 163 -29 72
-74 95 -144 102 -302 8 -189 -12 -324 -136 -922 -68 -328 -75 -458 -31 -627
52 -203 161 -378 359 -577 187 -187 381 -328 660 -480 68 -38 118 -70 110 -73
-8 -3 -151 -23 -319 -46 -168 -22 -326 -46 -352 -51 -116 -26 -155 -169 -67
-243 42 -36 81 -40 205 -22 60 8 271 38 469 66 467 66 530 82 571 146 36 54
21 126 -119 575 -68 217 -97 339 -116 491 -12 86 -24 147 -35 163 -59 89 -195
83 -241 -12 -37 -77 0 -317 105 -664 22 -73 38 -135 35 -137 -7 -8 -222 115
-355 202 -290 191 -494 401 -589 608 -51 110 -63 163 -62 280 0 116 15 210 87
544 93 433 98 472 98 709 0 238 -12 301 -80 436 -51 103 -166 217 -249 249
-122 46 -262 23 -402 -66 -79 -50 -132 -96 -388 -330 -457 -419 -682 -593
-920 -709 -423 -207 -644 -77 -760 449 -41 183 6 476 155 976 27 91 61 198 75
239 31 93 32 138 2 182 -38 56 -99 77 -162 54z"/>
</g>
</svg>
