<?xml version="1.0" standalone="no"?>
<!DOCTYPE svg PUBLIC "-//W3C//DTD SVG 20010904//EN"
 "http://www.w3.org/TR/2001/REC-SVG-20010904/DTD/svg10.dtd">
<svg version="1.0" xmlns="http://www.w3.org/2000/svg"
 width="512.000000pt" height="512.000000pt" viewBox="0 0 512.000000 512.000000"
 preserveAspectRatio="xMidYMid meet">

<g transform="translate(0.000000,512.000000) scale(0.100000,-0.100000)"
fill="#000000" stroke="none">
<path d="M1360 4790 l0 -169 -42 -11 c-69 -17 -189 -61 -240 -86 -26 -13 -52
-24 -57 -24 -6 0 -55 54 -111 119 -55 66 -104 122 -108 125 -5 3 -87 -60 -183
-141 -96 -80 -187 -156 -202 -169 l-28 -24 106 -125 c68 -80 105 -131 101
-140 -3 -9 -23 -42 -45 -74 -22 -32 -59 -96 -82 -142 -23 -46 -43 -86 -45 -87
-1 -2 -75 9 -163 24 -89 15 -163 25 -165 23 -7 -6 -97 -512 -92 -516 2 -2 73
-15 157 -30 85 -14 157 -29 162 -33 4 -4 12 -47 17 -96 6 -49 20 -126 31 -172
11 -46 18 -87 14 -90 -4 -4 -66 -41 -138 -84 -73 -42 -132 -82 -132 -90 0 -18
248 -448 258 -448 5 0 71 36 148 81 l140 81 72 -69 c40 -38 103 -91 140 -117
50 -36 66 -53 62 -65 -51 -129 -106 -294 -99 -300 5 -4 113 -45 239 -91 127
-45 235 -85 241 -87 6 -2 35 63 68 154 l57 159 93 -8 c51 -4 132 -4 180 0 74
7 89 6 95 -8 5 -8 30 -76 56 -150 27 -74 51 -138 54 -142 5 -6 484 162 497
174 2 3 -21 72 -51 154 -30 82 -55 154 -55 159 1 6 29 29 63 52 34 23 96 74
139 112 l76 71 142 -81 c80 -46 145 -78 150 -73 10 10 260 441 260 447 0 3
-65 42 -145 88 -109 62 -144 87 -139 99 17 45 45 186 50 258 6 73 9 83 28 87
24 5 302 55 308 55 2 0 -16 117 -41 260 -42 239 -47 260 -66 260 -11 0 -81
-11 -155 -25 -74 -14 -140 -25 -147 -25 -7 0 -28 33 -46 73 -19 39 -59 110
-90 156 l-57 84 101 119 c55 66 102 125 105 132 3 7 -84 86 -197 181 -196 164
-202 168 -218 149 -101 -125 -195 -234 -201 -234 -4 0 -41 15 -83 34 -64 29
-107 44 -239 82 -16 5 -18 22 -18 175 l0 169 -265 0 -265 0 0 -170z m425 -776
c33 -8 96 -32 140 -53 341 -168 475 -585 298 -924 -57 -109 -183 -232 -293
-285 -112 -55 -185 -72 -301 -73 -118 0 -211 20 -305 67 -174 86 -302 240
-353 424 -56 200 -25 393 90 565 157 235 444 345 724 279z"/>
<path d="M4245 4259 c-2 -8 -12 -47 -20 -88 -9 -41 -17 -76 -19 -78 -1 -2 -37
-7 -79 -13 -42 -5 -87 -12 -99 -15 -21 -5 -28 3 -66 74 -24 45 -47 81 -51 81
-6 0 -245 -125 -259 -135 -1 -1 18 -40 42 -85 l44 -83 -66 -73 c-37 -41 -71
-74 -77 -74 -5 0 -45 14 -89 31 -43 16 -79 29 -81 27 -12 -13 -106 -271 -100
-276 3 -4 41 -20 83 -37 l77 -31 -2 -104 -2 -105 -82 -27 c-45 -15 -84 -30
-86 -32 -4 -4 55 -202 77 -262 l9 -23 88 30 c86 29 88 29 103 10 8 -10 36 -46
63 -79 26 -33 47 -63 47 -67 0 -5 -21 -42 -46 -82 -25 -41 -45 -76 -43 -77 2
-2 60 -38 128 -80 94 -58 126 -74 133 -64 4 7 27 43 49 81 23 37 43 67 46 67
3 0 28 -6 56 -14 29 -8 73 -17 98 -21 l45 -6 13 -91 c6 -51 13 -93 14 -95 3
-2 290 38 295 42 1 1 -4 44 -11 94 l-14 93 56 27 c31 15 72 37 91 49 l36 22
67 -61 c37 -33 71 -59 75 -57 12 4 192 207 192 215 0 4 -30 34 -67 68 l-67 62
26 59 c14 32 31 76 37 96 l12 36 93 -5 93 -6 6 108 c4 60 7 128 7 152 l0 43
-47 1 c-27 0 -70 4 -97 7 l-49 7 -17 60 c-9 33 -22 73 -29 88 -6 16 -11 32
-11 36 0 5 31 32 70 62 38 30 69 57 70 60 0 9 -171 223 -181 227 -5 2 -41 -21
-78 -52 l-69 -55 -89 55 -89 56 18 81 c9 45 18 87 18 92 0 6 -53 21 -117 34
-65 12 -130 25 -145 28 -18 4 -29 1 -33 -8z m129 -554 c76 -37 145 -105 182
-180 26 -55 29 -69 29 -165 0 -99 -2 -110 -32 -171 -39 -79 -102 -140 -181
-177 -50 -24 -69 -27 -162 -27 -96 0 -110 3 -165 29 -76 38 -144 105 -180 181
-26 54 -29 70 -30 160 0 88 3 107 27 157 47 100 137 180 241 214 69 23 199 12
271 -21z"/>
<path d="M3378 2456 c-81 -11 -149 -24 -153 -27 -3 -4 1 -57 10 -119 8 -62 14
-114 13 -116 -2 -1 -28 -13 -59 -27 -31 -14 -81 -41 -112 -60 l-55 -35 -88 79
c-49 43 -91 78 -94 76 -5 -2 -157 -168 -234 -254 l-19 -23 59 -53 c32 -30 72
-65 89 -79 l29 -26 -31 -68 c-17 -38 -39 -93 -48 -123 l-17 -53 -119 3 -119 4
-4 -25 c-3 -14 -6 -99 -8 -190 l-3 -165 119 -5 119 -5 22 -80 c12 -44 29 -97
38 -119 9 -21 17 -41 17 -45 0 -4 -40 -38 -90 -76 -49 -38 -90 -73 -90 -77 0
-4 50 -72 112 -150 61 -79 112 -144 114 -146 1 -2 42 28 92 67 49 39 95 71
102 71 7 0 29 -13 49 -29 20 -16 67 -45 104 -66 49 -27 66 -42 63 -54 -11 -36
-46 -214 -44 -216 2 -2 85 -21 185 -42 160 -35 183 -38 187 -24 3 9 14 61 26
116 12 54 22 100 23 101 1 0 47 7 102 14 55 7 114 15 130 17 29 4 32 1 84
-101 l55 -105 50 28 c28 16 104 56 169 90 l117 62 -56 105 -56 105 59 62 c32
34 71 79 87 99 l27 36 110 -45 c61 -25 112 -44 114 -42 2 2 35 82 74 177 l70
173 -27 10 c-15 6 -63 25 -107 43 l-80 32 2 133 1 133 109 35 c59 20 110 37
112 39 3 3 -107 355 -113 361 -2 2 -49 -13 -106 -32 -57 -19 -109 -35 -116
-35 -6 0 -24 19 -39 43 -16 23 -50 68 -77 99 -31 35 -47 62 -42 70 4 7 31 52
60 99 30 47 54 89 54 91 0 8 -306 198 -318 198 -5 0 -12 -6 -15 -14 -3 -8 -30
-52 -61 -99 l-55 -86 -63 19 c-34 11 -89 22 -121 26 -38 4 -60 12 -66 23 -4 9
-14 62 -21 119 l-12 102 -37 -1 c-20 -1 -102 -11 -183 -23z m282 -656 c174
-33 329 -180 375 -355 78 -301 -156 -604 -465 -605 -136 0 -266 55 -356 152
-90 98 -134 205 -134 328 0 308 276 538 580 480z"/>
</g>
</svg>
