<?xml version="1.0" standalone="no"?>
<!DOCTYPE svg PUBLIC "-//W3C//DTD SVG 20010904//EN"
 "http://www.w3.org/TR/2001/REC-SVG-20010904/DTD/svg10.dtd">
<svg version="1.0" xmlns="http://www.w3.org/2000/svg"
 width="512.000000pt" height="512.000000pt" viewBox="0 0 512.000000 512.000000"
 preserveAspectRatio="xMidYMid meet">

<g transform="translate(0.000000,512.000000) scale(0.100000,-0.100000)"
fill="#000000" stroke="none">
<path d="M2370 5113 c-379 -36 -661 -116 -980 -278 -378 -193 -717 -497 -965
-865 -104 -156 -232 -419 -294 -605 -49 -150 -89 -321 -113 -490 -17 -118 -17
-512 0 -630 42 -295 120 -553 242 -800 137 -280 272 -468 494 -691 221 -220
412 -357 681 -489 188 -92 309 -137 500 -185 500 -126 1002 -102 1490 71 149
53 407 182 540 271 299 199 573 480 769 788 72 113 188 353 235 486 235 662
194 1372 -115 1993 -124 250 -263 447 -458 648 -216 224 -428 378 -711 518
-296 146 -572 225 -900 255 -102 9 -333 11 -415 3z m365 -203 c569 -47 1080
-280 1480 -675 300 -297 523 -681 624 -1078 180 -703 39 -1428 -389 -2002
-322 -431 -785 -744 -1293 -874 -663 -170 -1341 -56 -1907 322 -471 313 -830
818 -969 1360 -85 330 -100 664 -45 987 127 745 605 1389 1279 1720 168 82
297 131 450 170 275 69 515 91 770 70z"/>
<path d="M1755 3962 c-52 -24 -111 -90 -124 -139 -15 -53 -15 -2473 0 -2527 6
-21 29 -58 51 -82 51 -55 109 -78 185 -72 54 4 82 18 423 215 201 116 678 391
1060 612 396 228 711 416 733 437 97 94 79 261 -35 339 -18 13 -355 209 -748
435 -393 227 -863 499 -1045 604 -326 188 -331 191 -395 194 -48 2 -76 -2
-105 -16z m1149 -788 c695 -401 1036 -603 1036 -614 0 -11 -340 -213 -1033
-612 -568 -328 -1040 -600 -1051 -604 -11 -4 -21 -2 -27 7 -10 16 -13 2388 -3
2414 4 10 14 15 25 12 9 -3 484 -274 1053 -603z"/>
</g>
</svg>
