<?xml version="1.0" standalone="no"?>
<!DOCTYPE svg PUBLIC "-//W3C//DTD SVG 20010904//EN"
 "http://www.w3.org/TR/2001/REC-SVG-20010904/DTD/svg10.dtd">
<svg version="1.0" xmlns="http://www.w3.org/2000/svg"
 width="512.000000pt" height="512.000000pt" viewBox="0 0 512.000000 512.000000"
 preserveAspectRatio="xMidYMid meet">

<g transform="translate(0.000000,512.000000) scale(0.100000,-0.100000)"
fill="#000000" stroke="none">
<path d="M1233 4574 c-29 -15 -63 -65 -63 -94 0 -30 34 -80 65 -94 49 -24 681
-24 730 0 31 14 65 64 65 94 0 30 -34 80 -65 94 -49 24 -684 23 -732 0z"/>
<path d="M2388 4516 c-126 -52 -387 -214 -533 -331 -241 -192 -468 -449 -672
-758 -53 -81 -105 -140 -255 -287 l-188 -185 0 -50 c0 -49 0 -49 96 -142 l97
-93 -417 0 c-458 0 -471 -2 -500 -59 -20 -38 -20 -64 0 -102 30 -59 32 -59
611 -59 l528 0 265 -265 264 -265 -651 -2 -651 -3 -26 -24 c-51 -48 -40 -142
20 -170 18 -8 243 -11 771 -11 l746 0 181 -187 c380 -392 596 -569 868 -713
l113 -60 -1478 0 c-1254 0 -1483 -2 -1512 -14 -36 -15 -65 -59 -65 -98 0 -41
36 -86 77 -98 27 -8 708 -10 2413 -8 2286 3 2377 4 2423 22 66 25 149 104 178
168 24 52 24 59 24 348 0 333 -4 362 -74 505 -69 140 -177 253 -314 326 -34
19 -181 74 -326 124 l-265 90 -227 683 c-125 375 -236 697 -248 715 -47 76
-128 130 -223 147 -63 12 -109 4 -214 -35 -184 -69 -379 10 -443 180 -32 83
-26 194 15 280 23 49 28 74 29 135 0 66 -5 85 -33 143 -75 151 -249 217 -404
153z m195 -220 c42 -39 44 -68 7 -175 -75 -221 -26 -438 134 -589 143 -135
359 -176 571 -108 100 32 126 32 162 2 24 -21 65 -113 63 -143 0 -5 -62 -29
-138 -54 -122 -41 -140 -49 -160 -80 -31 -45 -24 -93 19 -133 29 -26 37 -28
83 -22 28 3 99 22 159 42 59 21 109 35 111 33 6 -7 106 -314 106 -326 0 -6
-51 -28 -112 -49 -137 -45 -155 -56 -169 -103 -15 -52 6 -102 54 -125 35 -16
40 -16 117 4 45 11 104 30 132 41 28 11 52 18 53 17 6 -6 104 -322 101 -325
-1 -2 -29 6 -61 17 -32 11 -68 20 -81 20 -60 0 -104 -47 -104 -113 0 -67 19
-78 284 -167 l244 -81 -50 -67 c-60 -78 -111 -184 -134 -274 -8 -35 -18 -129
-21 -210 -4 -114 -9 -148 -19 -148 -7 0 -63 7 -125 16 -349 48 -605 170 -929
441 -58 48 -268 252 -467 453 l-362 365 27 14 c43 21 62 52 62 99 0 35 -6 49
-29 73 -29 29 -30 29 -150 29 -67 0 -121 2 -121 4 0 2 18 41 39 87 148 316
123 691 -65 981 l-47 73 59 54 c231 212 596 451 690 451 30 0 48 -7 67 -24z
m-909 -738 c106 -213 119 -440 36 -661 -12 -31 -26 -57 -32 -57 -5 0 -92 82
-193 181 l-184 181 42 67 c88 140 263 379 278 381 4 0 28 -42 53 -92z m-326
-698 l184 -190 -149 0 -148 0 -115 115 -115 115 75 75 c41 41 77 75 80 75 3 0
87 -86 188 -190z m907 -908 c275 -275 538 -528 585 -565 301 -231 660 -375
1042 -416 54 -6 303 -11 563 -11 l465 0 0 -55 c0 -31 -6 -71 -14 -89 -28 -67
-23 -66 -401 -66 -759 0 -1083 47 -1389 202 -295 148 -564 386 -1358 1201
l-290 297 148 0 149 0 500 -498z m2250 -186 c52 -19 114 -46 138 -59 158 -93
256 -260 260 -445 l2 -87 -374 -3 -374 -2 6 132 c7 148 24 225 69 311 34 63
142 187 163 187 8 0 57 -15 110 -34z"/>
<path d="M257 3710 c-38 -30 -52 -80 -33 -123 28 -69 22 -68 535 -65 l459 3
26 24 c51 48 40 142 -20 170 -17 8 -167 11 -483 11 -444 0 -459 -1 -484 -20z"/>
<path d="M1217 1150 c-38 -30 -52 -80 -33 -123 27 -66 35 -67 416 -67 381 0
389 1 416 67 19 43 5 93 -33 123 -25 19 -40 20 -383 20 -343 0 -358 -1 -383
-20z"/>
</g>
</svg>
